<svg id="Layer_1" data-name="Layer 1" xmlns="http://www.w3.org/2000/svg" viewBox="0 0 24 24"><defs><style>.cls-1{fill:#565656;}.cls-2{fill:#fff;}</style></defs><title>Artboard 1</title><circle class="cls-1" cx="12" cy="12" r="12"/><rect class="cls-2" x="4" y="16" width="11" height="2" rx="1" ry="1"/><circle class="cls-2" cx="15.5" cy="8.5" r="4.5"/><path class="cls-2" d="M10,8H5a1,1,0,0,0,0,2h5.21A5.47,5.47,0,0,1,10,8.5C10,8.33,10,8.16,10,8Z"/><path class="cls-2" d="M11.26,12H5a1,1,0,0,0,0,2h9a1,1,0,0,0,.43-.11A5.5,5.5,0,0,1,11.26,12Z"/><path class="cls-1" d="M15,11.06,13,9A.75.75,0,0,1,14,8l1,1,2.47-2.47a.75.75,0,0,1,1.06,1.06Z"/></svg>