<svg id="Layer_1" data-name="Layer 1" xmlns="http://www.w3.org/2000/svg" viewBox="0 0 32 32"><defs><style>.cls-1{fill:#8c8c8c;}.cls-2{fill:#fff;}.cls-3,.cls-4{fill:#747474;}.cls-3{fill-rule:evenodd;}.cls-5{opacity:0.8;}.cls-6{fill:#cd3632;}</style></defs><title>mime_saved_search_nonselectable32</title><path class="cls-1" d="M7,31.5A3.5,3.5,0,0,1,3.5,28V4A3.5,3.5,0,0,1,7,.5H22.207L28.5,6.793V28A3.5,3.5,0,0,1,25,31.5Z"/><path class="cls-2" d="M22,1l6,6V28a3,3,0,0,1-3,3H7a3,3,0,0,1-3-3V4A3,3,0,0,1,7,1H22m.414-1H7A4,4,0,0,0,3,4V28a4,4,0,0,0,4,4H25a4,4,0,0,0,4-4V6.586l-.293-.293-6-6L22.414,0Z"/><polygon class="cls-3" points="22 1 22 7 28 7 22 1"/><path class="cls-4" d="M21.707,21.293l-3.121-3.121a5.5,5.5,0,1,0-1.6,1.229l3.306,3.306a1,1,0,0,0,1.414-1.414ZM11,14.5A3.5,3.5,0,1,1,14.5,18,3.5,3.5,0,0,1,11,14.5Z"/><path class="cls-2" d="M21.707,20.293l-3.121-3.121a5.5,5.5,0,1,0-1.6,1.229l3.306,3.306a1,1,0,0,0,1.414-1.414ZM11,13.5A3.5,3.5,0,1,1,14.5,17,3.5,3.5,0,0,1,11,13.5Z"/><g class="cls-5"><circle class="cls-2" cx="24.5" cy="24.5" r="6.5"/></g><path class="cls-2" d="M28,16.76V28a3,3,0,0,1-3,3H19.02A8.5,8.5,0,0,1,24.5,16,8.364,8.364,0,0,1,28,16.76Z"/><path class="cls-6" d="M24.5,17A7.5,7.5,0,1,0,32,24.5,7.5,7.5,0,0,0,24.5,17Zm0,13a5.5,5.5,0,0,1-4.53-8.62l7.65,7.65A5.492,5.492,0,0,1,24.5,30Zm4.53-2.38-7.65-7.65a5.5,5.5,0,0,1,7.65,7.65Z"/></svg>