<?xml version="1.0" encoding="utf-8"?>
<!-- Generator: Adobe Illustrator 21.0.2, SVG Export Plug-In . SVG Version: 6.00 Build 0)  -->
<svg version="1.1" id="Layer_2" xmlns="http://www.w3.org/2000/svg" xmlns:xlink="http://www.w3.org/1999/xlink" x="0px" y="0px"
	 viewBox="0 0 32 32" style="enable-background:new 0 0 32 32;" xml:space="preserve">
<style type="text/css">
	.st0{fill:#EEB111;}
	.st1{fill:#FFFFFF;}
</style>
<title>mime</title>
<g>
	<g>
		<g>
			<g>
				<path class="st0" d="M5.4,31.5c-2.7,0-4.9-2.2-4.9-4.9V5.4c0-2.7,2.2-4.8,4.9-4.9h21.3c2.7,0,4.8,2.2,4.9,4.9v21.3
					c0,2.7-2.2,4.8-4.9,4.8h0H5.4z"/>
				<path class="st1" d="M26.6,1C29,1,31,3,31,5.4v21.3c0,2.4-2,4.3-4.4,4.4H5.4C3,31,1,29,1,26.6V5.4C1,3,3,1,5.4,1H26.6 M26.6,0
					H5.4C2.4,0,0,2.4,0,5.4v21.3c0,3,2.4,5.4,5.4,5.4h21.3c3,0,5.3-2.4,5.4-5.3V5.4C32,2.4,29.6,0,26.6,0L26.6,0z"/>
			</g>
		</g>
	</g>
	<g id="fave_icon_-_selected-2">
		<path class="st1" d="M16.4,7.6l2.2,4.4c0.1,0.1,0.2,0.2,0.3,0.2l4.8,0.7c0.2,0,0.4,0.2,0.4,0.5c0,0.1-0.1,0.2-0.1,0.2L20.4,17
			c-0.1,0.1-0.1,0.2-0.1,0.4l0.8,4.8c0,0.2-0.1,0.4-0.3,0.5c-0.1,0-0.2,0-0.3,0l-4.3-2.3c-0.1-0.1-0.3-0.1-0.4,0l-4.3,2.3
			c-0.2,0.1-0.4,0-0.6-0.2c0-0.1-0.1-0.2,0-0.3l0.8-4.8c0-0.1,0-0.3-0.1-0.4l-3.5-3.4C8,13.4,8,13.2,8.1,13c0.1-0.1,0.1-0.1,0.2-0.1
			l4.8-0.7c0.1,0,0.2-0.1,0.3-0.2l2.2-4.4c0.1-0.2,0.4-0.3,0.6-0.2C16.3,7.5,16.3,7.5,16.4,7.6z"/>
	</g>
</g>
</svg>
