<svg id="Layer_2" data-name="Layer 2" xmlns="http://www.w3.org/2000/svg" viewBox="0 0 32 32"><defs><style>.cls-1{fill:#c7cbd0;}.cls-2{fill:#fff;}.cls-3{fill:#627784;}.cls-4{fill:#a8b1b9;}.cls-5{fill:#d24625;}</style></defs><title>mime</title><path class="cls-1" d="M6.959,0.514H24.966a3.5,3.5,0,0,1,3.5,3.5V28.017a3.5,3.5,0,0,1-3.5,3.5H6.96a3.5,3.5,0,0,1-3.5-3.5V4.01a3.5,3.5,0,0,1,3.5-3.5Z"/><path class="cls-2" d="M24.966,1.014a3,3,0,0,1,3,3V28.017a3,3,0,0,1-3,3H6.959a3,3,0,0,1-3-3V4.011a3,3,0,0,1,3-3H24.966m0-1H6.959a4.009,4.009,0,0,0-4,4V28.017a4.009,4.009,0,0,0,4,4H24.966a4.009,4.009,0,0,0,4-4V4.011a4.009,4.009,0,0,0-4-4h0Z"/><path class="cls-3" d="M22.083,9.026H9.946a2,2,0,0,1,0-4H22.083A2,2,0,0,1,22.083,9.026Z"/><path class="cls-4" d="M14.024,29.028H10.01a2,2,0,0,1,0-4h4.014A2,2,0,0,1,14.024,29.028Z"/><path class="cls-5" d="M14.024,28.027H10.01a2,2,0,0,1,0-4h4.014A2,2,0,0,1,14.024,28.027Z"/><path class="cls-4" d="M11.017,14.051H9.009a1,1,0,0,1,0-2h2.008A1,1,0,0,1,11.017,14.051Z"/><path class="cls-2" d="M11.017,13.092H9.009a1,1,0,0,1,0-2h2.008A1,1,0,0,1,11.017,13.092Z"/><path class="cls-4" d="M17.038,14.051H15.03a1,1,0,0,1,0-2h2.008A1,1,0,0,1,17.038,14.051Z"/><path class="cls-2" d="M17.038,13.092H15.03a1,1,0,0,1,0-2h2.008A1,1,0,0,1,17.038,13.092Z"/><path class="cls-4" d="M23.017,14.051H21.009a1,1,0,0,1,0-2h2.008A1,1,0,0,1,23.017,14.051Z"/><path class="cls-2" d="M23.017,13.092H21.009a1,1,0,0,1,0-2h2.008A1,1,0,0,1,23.017,13.092Z"/><path class="cls-4" d="M11.017,18.051H9.009a1,1,0,0,1,0-2h2.008A1,1,0,0,1,11.017,18.051Z"/><path class="cls-2" d="M11.017,17.092H9.009a1,1,0,0,1,0-2h2.008A1,1,0,0,1,11.017,17.092Z"/><path class="cls-4" d="M17.038,18.051H15.03a1,1,0,0,1,0-2h2.008A1,1,0,0,1,17.038,18.051Z"/><path class="cls-2" d="M17.038,17.092H15.03a1,1,0,0,1,0-2h2.008A1,1,0,0,1,17.038,17.092Z"/><path class="cls-4" d="M23.017,18.051H21.009a1,1,0,0,1,0-2h2.008A1,1,0,0,1,23.017,18.051Z"/><path class="cls-2" d="M23.017,17.092H21.009a1,1,0,0,1,0-2h2.008A1,1,0,0,1,23.017,17.092Z"/><path class="cls-4" d="M11.017,22.051H9.009a1,1,0,0,1,0-2h2.008A1,1,0,0,1,11.017,22.051Z"/><path class="cls-2" d="M11.017,21.092H9.009a1,1,0,0,1,0-2h2.008A1,1,0,0,1,11.017,21.092Z"/><path class="cls-4" d="M17.038,22.051H15.03a1,1,0,0,1,0-2h2.008A1,1,0,0,1,17.038,22.051Z"/><path class="cls-2" d="M17.038,21.092H15.03a1,1,0,0,1,0-2h2.008A1,1,0,0,1,17.038,21.092Z"/><path class="cls-4" d="M23.017,22.051H21.009a1,1,0,0,1,0-2h2.008A1,1,0,0,1,23.017,22.051Z"/><path class="cls-2" d="M23.017,21.092H21.009a1,1,0,0,1,0-2h2.008A1,1,0,0,1,23.017,21.092Z"/></svg>