<svg id="Layer_1" data-name="Layer 1" xmlns="http://www.w3.org/2000/svg" width="32" height="32" viewBox="0 0 32 32"><title>perm_public32</title><path d="M27,6V26a2.006,2.006,0,0,1-2,2H21v.25A2.762,2.762,0,0,1,18.25,31a2.321,2.321,0,0,1-.44-.03L7.31,29.22A2.743,2.743,0,0,1,5,26.5V5.5A2.743,2.743,0,0,1,7.31,2.78L17.77,1.04A2.249,2.249,0,0,1,18.25,1,2.746,2.746,0,0,1,21,3.75V4h4A2.006,2.006,0,0,1,27,6Z" style="fill:#fff"/><path d="M20.89,3h-.06a1.629,1.629,0,0,1,.13.37A1.516,1.516,0,0,0,20.89,3Z" style="fill:#fff"/><path d="M26,6V26a1,1,0,0,1-1,1H21V5h4A1,1,0,0,1,26,6Z" style="fill:#3f4950"/><path d="M19.388,2.42A1.761,1.761,0,0,0,18.25,2a1.5,1.5,0,0,0-.28.018L7.47,3.768A1.749,1.749,0,0,0,6,5.5v21a1.749,1.749,0,0,0,1.47,1.732l10.5,1.75a1.5,1.5,0,0,0,.28.018A1.75,1.75,0,0,0,20,28.25V3.75A1.769,1.769,0,0,0,19.388,2.42ZM16.5,17A1.5,1.5,0,1,1,18,15.5,1.485,1.485,0,0,1,16.5,17Z" style="fill:#00b8ba"/></svg>