<svg id="Layer_1" data-name="Layer 1" xmlns="http://www.w3.org/2000/svg" width="18" height="18" viewBox="0 0 18 18"><title>perm_public18</title><path d="M10,17.5a1.422,1.422,0,0,1-.257-.02l-5.985-1A1.5,1.5,0,0,1,2.5,15V3A1.5,1.5,0,0,1,3.759,1.517l6-1A1.437,1.437,0,0,1,10,.5,1.5,1.5,0,0,1,11.5,2V16A1.5,1.5,0,0,1,10,17.5Zm-.5-9" style="fill:#333"/><path d="M10,1a1,1,0,0,1,1,1V16a1,1,0,0,1-1,1,.859.859,0,0,1-.16-.01l-6-1A1,1,0,0,1,3,15V3a1,1,0,0,1,.84-.99l6-1A.859.859,0,0,1,10,1M9.5,9A.5.5,0,1,0,9,8.5a.5.5,0,0,0,.5.5M10,0a1.763,1.763,0,0,0-.356.029l-5.968.994A1.994,1.994,0,0,0,2,3V15a2,2,0,0,0,1.679,1.977l6,1A1.68,1.68,0,0,0,10,18a2,2,0,0,0,2-2V2a2,2,0,0,0-2-2Z" style="fill:#fff"/><path d="M11.5,16.5v-2h2V3.5h-2v-2H14A1.5,1.5,0,0,1,15.5,3V15A1.5,1.5,0,0,1,14,16.5Z" style="fill:#333"/><path d="M14,2a1,1,0,0,1,1,1V15a1,1,0,0,1-1,1H12V15h2V3H12V2h2m0-1H11V4h2V14H11v3h3a2,2,0,0,0,2-2V3a2,2,0,0,0-2-2Z" style="fill:#fff"/></svg>