<svg id="Layer_1" data-name="Layer 1" xmlns="http://www.w3.org/2000/svg" width="18" height="18" viewBox="0 0 18 18"><title>perm_owner18</title><path d="M12,17.5a1.5,1.5,0,0,1-1.354-2.146,1.5,1.5,0,0,1-1.706-.294,1.5,1.5,0,0,1,0-2.121L9.879,12,6.65,8.771A3.734,3.734,0,0,1,1.79,8.4L1.6,8.21a3.744,3.744,0,0,1,0-5.3L2.913,1.6a3.822,3.822,0,0,1,5.3,0L8.4,1.79a3.734,3.734,0,0,1,.369,4.86l7.289,7.289A1.5,1.5,0,0,1,14,16.119l-.941.941A1.491,1.491,0,0,1,12,17.5ZM5.562,3.5a.743.743,0,0,0-.527.219L3.719,5.034a.745.745,0,0,0,0,1.055l.192.192a.775.775,0,0,0,1.055,0L6.281,4.966a.745.745,0,0,0,0-1.055l-.192-.192A.743.743,0,0,0,5.562,3.5Z" style="fill:#333"/><path d="M5.562,1.031a3.236,3.236,0,0,1,2.295.92l.192.192a3.233,3.233,0,0,1,.045,4.536l7.614,7.614a1,1,0,1,1-1.414,1.414L14,15.414l-1.293,1.293a1,1,0,0,1-1.414-1.414L12.586,14,12,13.414l-1.293,1.293a1,1,0,0,1-1.414-1.414L10.586,12,6.679,8.093a3.233,3.233,0,0,1-4.536-.045l-.192-.192a3.244,3.244,0,0,1,0-4.59L3.267,1.951a3.236,3.236,0,0,1,2.295-.92M4.438,6.988a1.243,1.243,0,0,0,.881-.353L6.635,5.319a1.245,1.245,0,0,0,0-1.762l-.192-.192a1.245,1.245,0,0,0-1.762,0L3.365,4.681a1.245,1.245,0,0,0,0,1.762l.192.192a1.243,1.243,0,0,0,.881.353M5.562.031a4.258,4.258,0,0,0-3,1.213L1.244,2.559a4.244,4.244,0,0,0,0,6l.192.192a4.234,4.234,0,0,0,5.148.657L9.172,12l-.586.586A2,2,0,0,0,10,16h0a2,2,0,0,0,3.413,1.414l.647-.647a2,2,0,0,0,2.353-3.181l-7-7a4.234,4.234,0,0,0-.658-5.149l-.192-.192a4.257,4.257,0,0,0-3-1.213ZM4.438,5.988a.249.249,0,0,1-.174-.06l-.192-.192a.245.245,0,0,1,0-.347L5.388,4.072a.245.245,0,0,1,.347,0l.192.192a.245.245,0,0,1,0,.347L4.612,5.928a.249.249,0,0,1-.174.06Z" style="fill:#fff"/></svg>