<svg id="Layer_1" data-name="Layer 1" xmlns="http://www.w3.org/2000/svg" viewBox="0 0 32 32"><defs><style>.cls-1{fill:#b36601;}.cls-2{fill:#e3992e;}.cls-3{fill:#dd8100;}.cls-4{fill:#ffac3e;}</style></defs><title>mime_perspective_asset_folder32</title><path class="cls-1" d="M1,28.457H31v-18A1.653,1.653,0,0,0,29.333,8.82H17.667a1.713,1.713,0,0,1-1.051-.451L12.562,4.854a1.835,1.835,0,0,0-1.121-.4H2.667A1.664,1.664,0,0,0,1,6.107Z"/><path class="cls-2" d="M2.111,27.366H29.889V12.093A1.1,1.1,0,0,0,28.778,11H3.222a1.1,1.1,0,0,0-1.111,1.091Z"/><polygon class="cls-3" points="2.111 27.366 29.889 27.366 29.889 13.184 2.111 27.366"/><ellipse class="cls-1" cx="16.031" cy="19.283" rx="7.457" ry="7.321"/><polygon class="cls-4" points="18.458 16.559 18.458 15.596 13.152 15.596 13.152 18.92 13.152 19.882 13.152 23.206 18.29 23.206 18.29 22.244 14.132 22.244 14.132 19.882 15.456 19.882 16.355 19.882 16.355 18.92 15.456 18.92 14.132 18.92 14.132 16.559 18.458 16.559"/><rect class="cls-4" x="15.153" y="18.222" width="2.402" height="2.358"/><rect class="cls-4" x="17.62" y="14.899" width="2.402" height="2.358"/><rect class="cls-4" x="17.089" y="21.546" width="2.402" height="2.358"/><rect class="cls-4" x="12.249" y="18.042" width="1.006" height="2.761" transform="translate(-6.671 32.174) rotate(-90)"/></svg>