<?xml version="1.0" encoding="utf-8"?>
<!-- Generator: Adobe Illustrator 22.1.0, SVG Export Plug-In . SVG Version: 6.00 Build 0)  -->
<svg version="1.1" id="Layer_1" xmlns="http://www.w3.org/2000/svg" xmlns:xlink="http://www.w3.org/1999/xlink" x="0px" y="0px"
	 viewBox="0 0 24 24" style="enable-background:new 0 0 24 24;" xml:space="preserve">
<style type="text/css">
	.st0{clip-path:url(#SVGID_2_);}
	.st1{fill:#FFFFFF;}
	.st2{fill:#333333;}
</style>
<g>
	<g>
		<defs>
			<rect id="SVGID_1_" x="-4" y="-4" width="32" height="32"/>
		</defs>
		<clipPath id="SVGID_2_">
			<use xlink:href="#SVGID_1_"  style="overflow:visible;"/>
		</clipPath>
		<g class="st0">
			<g>
				<circle class="st1" cx="12" cy="12" r="12"/>
			</g>
			<path class="st2" d="M12,3.939l4.03,4.03c0.293,0.293,0.293,0.768,0,1.061s-0.768,0.293-1.061,0L12,6.061l-2.97,2.97
				c-0.293,0.293-0.768,0.293-1.061,0s-0.293-0.768,0-1.061L12,3.939z"/>
			<path class="st2" d="M11,15c0,0.552,0.448,1,1,1s1-0.448,1-1s-0.448-1-1-1S11,14.448,11,15z"/>
			<path class="st2" d="M11,11c0,0.552,0.448,1,1,1s1-0.448,1-1s-0.448-1-1-1S11,10.448,11,11z"/>
			<path class="st2" d="M8.5,17.502h7c0.414,0,0.75,0.336,0.75,0.75l0,0c0,0.414-0.336,0.75-0.75,0.75h-7
				c-0.414,0-0.75-0.336-0.75-0.75l0,0C7.75,17.838,8.086,17.502,8.5,17.502z"/>
		</g>
	</g>
</g>
</svg>
