<?xml version="1.0" encoding="utf-8"?>
<!-- Generator: Adobe Illustrator 19.1.0, SVG Export Plug-In . SVG Version: 6.00 Build 0)  -->
<!DOCTYPE svg PUBLIC "-//W3C//DTD SVG 1.1//EN" "http://www.w3.org/Graphics/SVG/1.1/DTD/svg11.dtd">
<svg version="1.1" id="Layer_1" xmlns="http://www.w3.org/2000/svg" xmlns:xlink="http://www.w3.org/1999/xlink" x="0px" y="0px"
	 viewBox="0 0 24 24" enable-background="new 0 0 24 24" xml:space="preserve">
<symbol  id="more_icon" viewBox="-11.5 -2.5 24 6">
	<g>
		<path fill="#333333" d="M-5.5,0.5c0-1.657-1.343-3-3-3s-3,1.343-3,3s1.343,3,3,3S-5.5,2.157-5.5,0.5z"/>
	</g>
	<g>
		<path fill="#333333" d="M12.5,0.5c0-1.657-1.343-3-3-3s-3,1.343-3,3s1.343,3,3,3S12.5,2.157,12.5,0.5z"/>
	</g>
	<g>
		<path fill="#333333" d="M3.5,0.5c0-1.657-1.343-3-3-3s-3,1.343-3,3s1.343,3,3,3S3.5,2.157,3.5,0.5z"/>
	</g>
</symbol>
<g id="metadata">
</g>
<g id="like_icon">
</g>
<g id="fave_icon">
</g>
<g id="fave_icon_-_selected">
</g>
<g id="comment_icon_-_selected">
</g>
<g id="Comment_icon">
</g>
<g id="fave_icon_-_selected_1_">
</g>
<g id="like_icon_-_selected">
</g>
<g id="copy_x2F_move_icon">
</g>
<g id="download_icon_2">
</g>
<g id="share_icon_2">
</g>
<g id="reserve_icon">
</g>
<g id="edit_icon">
	
		<use xlink:href="#more_icon"  width="24" height="6" id="XMLID_124_" x="-11.5" y="-2.5" transform="matrix(1 0 0 -1 11.5 12.5)" overflow="visible"/>
	<g id="edit_icon_2">
	</g>
	<g id="trash_icon">
		<g id="trash">
		</g>
	</g>
</g>
<g id="metadata_2">
</g>
</svg>
