<?xml version="1.0" encoding="utf-8"?>
<!-- Generator: Adobe Illustrator 19.2.0, SVG Export Plug-In . SVG Version: 6.00 Build 0)  -->
<!DOCTYPE svg PUBLIC "-//W3C//DTD SVG 1.1//EN" "http://www.w3.org/Graphics/SVG/1.1/DTD/svg11.dtd">
<svg version="1.1" id="Layer_2" xmlns="http://www.w3.org/2000/svg" xmlns:xlink="http://www.w3.org/1999/xlink" x="0px" y="0px"
	 viewBox="0 0 32 32" style="enable-background:new 0 0 32 32;" xml:space="preserve">
<style type="text/css">
	.st0{fill:#2E4453;}
	.st1{fill:#FFFFFF;}
	.st2{fill:#506471;}
	.st3{fill:#475C69;}
	.st4{fill:#9FB0B7;}
	.st5{fill:#DF3324;}
	.st6{fill:#B36601;}
	.st7{fill:#E3992E;}
	.st8{fill:#DD8100;}
	.st9{fill:#FFDCB6;}
</style>
<path class="st0" d="M1.5,27.493V6.507c0-1.105,0.895-2,2-2h7.9c0.479,0.001,0.944,0.163,1.319,0.46L16.385,8.2
	C16.55,8.366,16.767,8.469,17,8.493h10.5c1.105,0,2,0.895,2,2v17H1.5z"/>
<path class="st1" d="M11.4,5.007c0.366,0,0.722,0.124,1.009,0.351l3.648,3.222c0.257,0.243,0.59,0.389,0.943,0.413h10.5
	c0.828,0,1.5,0.672,1.5,1.5v16.5H2V6.507c0-0.828,0.672-1.5,1.5-1.5H11.4 M11.4,4.007H3.5c-1.381,0-2.5,1.119-2.5,2.5v21.486h29
	v-17.5c0-1.381-1.119-2.5-2.5-2.5H17c-0.114-0.035-0.217-0.098-0.3-0.183l-3.626-3.2l-0.02-0.018l-0.022-0.016
	c-0.464-0.367-1.038-0.566-1.63-0.567l0,0L11.4,4.007z"/>
<path class="st2" d="M3,25.993h25v-14c0-0.552-0.448-1-1-1H4c-0.552,0-1,0.448-1,1V25.993z"/>
<polygon class="st3" points="3.001,25.993 28.001,25.993 28.001,12.993 "/>
<rect x="14.004" y="21.366" class="st0" width="3" height="2.632"/>
<path class="st0" d="M17.5,25h-4c-0.276,0-0.5-0.224-0.5-0.5l0,0c0-0.276,0.224-0.5,0.5-0.5h4c0.276,0,0.5,0.224,0.5,0.5l0,0
	C18,24.776,17.776,25,17.5,25z"/>
<path class="st0" d="M22.024,22.968H8.985c-0.54-0.001-0.978-0.439-0.979-0.979V14.95c0.001-0.54,0.439-0.978,0.979-0.979h13.04
	c0.539,0.003,0.974,0.44,0.975,0.979v7.04C22.998,22.529,22.563,22.965,22.024,22.968z"/>
<rect x="14.004" y="20.379" class="st1" width="3" height="2.632"/>
<path class="st1" d="M17.5,24.011h-4c-0.276,0-0.5-0.224-0.5-0.5l0,0c0-0.276,0.224-0.5,0.5-0.5h4c0.276,0,0.5,0.224,0.5,0.5l0,0
	C18,23.787,17.776,24.011,17.5,24.011z"/>
<path class="st1" d="M22.024,21.981H8.985C8.444,21.98,8.006,21.541,8.006,21v-7.037c0.001-0.54,0.439-0.978,0.979-0.979h13.04
	c0.54,0.002,0.977,0.439,0.978,0.979V21C23.003,21.541,22.565,21.98,22.024,21.981z"/>
<rect x="9.008" y="13.992" class="st0" width="12.997" height="6.997"/>
<polygon class="st3" points="22.006,13.991 9.009,13.991 9.009,20.988 12.644,20.988 22.006,16.12 "/>
</svg>
