<?xml version="1.0" encoding="utf-8"?>
<!-- Generator: Adobe Illustrator 18.1.1, SVG Export Plug-In . SVG Version: 6.00 Build 0)  -->
<svg version="1.1" id="Layer_1" xmlns="http://www.w3.org/2000/svg" xmlns:xlink="http://www.w3.org/1999/xlink" x="0px" y="0px"
	 viewBox="0 -4 32 32" enable-background="new 0 -4 32 32" xml:space="preserve">
<polygon fill="#999999" enable-background="new    " points="29,27 6,27 6,-3 22.9,-3 29,3.1 "/>
<polygon fill="#FFFFFF" points="7,26 7,-2 22,-2 28,3.9 28,26 "/>
<rect x="9" y="6" fill="#999999" width="17" height="18"/>
<rect x="9.7" y="7" fill="#FFFFFF" width="15.3" height="15.9"/>
<rect x="13" y="6.7" fill="#999999" width="0.7" height="15.3"/>
<polygon fill="#999999" points="18,23.3 16,23.4 16,6 18,6 "/>
<rect x="20.1" y="6" fill="#999999" width="1.9" height="17.1"/>
<rect x="17.1" y="18" fill="#FFFFFF" width="7.8" height="3.8"/>
<rect x="11" y="8" fill="#FFFFFF" width="12.7" height="4"/>
<rect x="15" y="13" fill="#FFFFFF" width="8" height="3.7"/>
<rect x="12" y="9.1" fill="#8BBF8A" width="12" height="1.7"/>
<rect x="15.7" y="14.2" fill="#8BBF8A" width="7.3" height="1.6"/>
<rect x="18.2" y="19" fill="#8BBF8A" width="6.8" height="1.9"/>
<polygon fill="#FFFFFF" points="22.3,4 22.3,-1.3 22.3,-1.3 27.7,4 27.7,4 "/>
<polygon fill="#999999" enable-background="new    " points="23,4 23,-2.7 22,-2.6 22,5 28.6,5 28.4,4 "/>
<polygon fill="#FFFFFF" points="7,6.5 7,23.5 16,24.8 16,5.2 "/>
<polygon fill="#307439" points="14.8,6 14.8,24 3,22.3 3,7.7 "/>
<g>
	<path fill="#FFFFFF" d="M6,11.4c0,0,1.8,0,2.7,0c0.9,0,1.9,0.4,2.2,0.7s0.7,0.9,0.7,1.6s-0.4,1.7-0.7,2.1c-0.4,0.4-1,0.7-1.8,0.7
		c-0.2,0-0.9,0-1.1,0l0,2.5H6V11.4z M7.9,15.2c0.1,0,1.1,0,1.3,0c0.8,0,1-0.5,1-1.1s-0.6-1.1-1-1.2s-1.1-0.1-1.2,0L7.9,15.2z"/>
</g>
</svg>
