<?xml version="1.0" encoding="utf-8"?>
<!-- Generator: Adobe Illustrator 18.1.1, SVG Export Plug-In . SVG Version: 6.00 Build 0)  -->
<svg version="1.1" id="Layer_1" xmlns="http://www.w3.org/2000/svg" xmlns:xlink="http://www.w3.org/1999/xlink" x="0px" y="0px"
	 viewBox="0 -4 32 32" enable-background="new 0 -4 32 32" xml:space="preserve">
<path opacity="0.4" fill="#231F20" enable-background="new    " d="M26,27L6,27L6-3l22.9,0c0,0,0,8.8,0,8.8l-3,0L26,27z"/>
<polygon fill="#FFFFFF" points="7,26 7.1,-2 28,-2 28,5 25,5 25,26 "/>
<path fill="#999999" d="M9.1,5C9.1,5,23,5,23,5.1L23,7L9,7L9.1,5z"/>
<polygon fill="#999999" points="9,2 22.9,2 22.9,3.9 9,3.9 "/>
<polygon fill="#999999" points="9,8.1 23,8 23,9.9 9,10 "/>
<polygon fill="#999999" points="9,14.1 23,14.2 23,16 9,16 "/>
<polygon fill="#999999" points="9,11 23,11 23,13 9,13 "/>
<polygon fill="#999999" points="9,20 23,20 22.9,21.8 9,21.9 "/>
<path fill="#999999" d="M9,17.1l13.9,0l0.1,2H9C9,19,9,17.1,9,17.1z"/>
<polygon fill="#FFFFFF" points="7,4.7 7,23.5 16,24.8 15.8,5.1 "/>
<polygon fill="#803A7A" points="14.8,6.1 14.9,23.9 3,22.3 3,7.7 "/>
<g>
	<path fill="#FFFFFF" d="M6.1,19l0-7.8l1.9,0l2.1,4.9l0-4.9l1.9,0l0,7.9L10,19l-2-4l0,4L6.1,19z"/>
</g>
</svg>
