<?xml version="1.0" encoding="utf-8"?>
<!-- Generator: Adobe Illustrator 19.2.1, SVG Export Plug-In . SVG Version: 6.00 Build 0)  -->
<svg version="1.1" id="Layer_1" xmlns="http://www.w3.org/2000/svg" xmlns:xlink="http://www.w3.org/1999/xlink" x="0px" y="0px"
	 viewBox="0 0 32 32" style="enable-background:new 0 0 32 32;" xml:space="preserve">
<style type="text/css">
	.st0{opacity:0.4;fill:#231F20;enable-background:new    ;}
	.st1{fill:#FFFFFF;}
	.st2{fill:#F5BA9D;}
	.st3{fill:#949494;}
	.st4{fill:#D04727;}
	.st5{enable-background:new    ;}
	.st6{clip-path:url(#SVGID_2_);}
</style>
<g id="_x34_8_1_">
	<polygon class="st0" points="28,30.7 5.3,30.7 5.3,1.3 21,1.3 28,8.3 	"/>
	<polygon class="st1" points="6,30 6,2 20.7,2 27.3,8.7 27.3,30 	"/>
	<g>
		<rect x="8" y="20" class="st2" width="17.3" height="1.3"/>
		<rect x="8" y="22.7" class="st2" width="17.3" height="1.3"/>
		<rect x="8" y="25.3" class="st2" width="17.3" height="1.3"/>
		<rect x="9.3" y="20" class="st1" width="1.3" height="6.7"/>
	</g>
	<path class="st3" d="M16.7,6c-3.3,0-6,2.7-6,6s2.7,6,6,6s6-2.7,6-6h-6V6z"/>
	<path class="st2" d="M18,4.7v6h6C24,7.3,21.3,4.7,18,4.7z"/>
	<polygon class="st1" points="21.3,8 21.3,2.7 21.3,2.7 26.7,8 26.7,8 	"/>
	<polygon class="st0" points="21.3,8 21.3,2.5 20.7,2 20.7,8 20.7,8.7 21.3,8.7 27.3,8.7 26.9,8 	"/>
</g>
<g id="_x34_8_5_">
	<polygon class="st1" points="6,10.5 6,27.5 14.7,28.8 14.7,9.2 	"/>
	<polygon class="st4" points="14,10 14,28 2,26.3 2,11.7 	"/>
	<g>
		<g class="st5">
			<g>
				<defs>
					<polygon id="SVGID_1_" points="6.1,22.7 6.1,15.5 10.6,15.4 10.6,22.7 					"/>
				</defs>
				<clipPath id="SVGID_2_">
					<use xlink:href="#SVGID_1_"  style="overflow:visible;"/>
				</clipPath>
				<g class="st6">
					<path class="st1" d="M7.5,18.9v-2.3H8c0.2,0,0.3,0,0.5,0.1s0.3,0.1,0.3,0.2C8.9,17,8.9,17.1,9,17.3s0.1,0.3,0.1,0.5
						c0,0.2,0,0.3-0.1,0.5c-0.1,0.1-0.1,0.3-0.2,0.3c-0.1,0.1-0.2,0.2-0.3,0.2c-0.1,0.1-0.3,0.1-0.5,0.1L7.5,18.9 M8.3,15.4H6.1v7.2
						h1.4v-2.5h0.7c0.1,0,0.3,0,0.3,0c0.1,0,0.2,0,0.3-0.1C8.9,20.1,9,20,9.1,20c0.1-0.1,0.2-0.1,0.3-0.1c0.1-0.1,0.2-0.1,0.3-0.2
						c0.1-0.1,0.1-0.1,0.3-0.2c0.1-0.1,0.1-0.1,0.2-0.2c0.1-0.1,0.1-0.2,0.2-0.3c0.1-0.1,0.1-0.2,0.1-0.3c0.1-0.1,0.1-0.2,0.1-0.3
						s0.1-0.2,0.1-0.3c0-0.1,0-0.2,0-0.3c0-0.4-0.1-0.7-0.1-1c-0.1-0.3-0.3-0.5-0.5-0.7c-0.2-0.2-0.5-0.3-0.7-0.4
						C9,15.5,8.6,15.4,8.3,15.4"/>
				</g>
			</g>
		</g>
	</g>
</g>
</svg>
