<svg id="Layer_2" data-name="Layer 2" xmlns="http://www.w3.org/2000/svg" viewBox="0 0 32 32"><defs><style>.cls-1{fill:#fff;}.cls-2{fill:#c57c15;}.cls-3{fill:#e0e4e6;}</style></defs><title>mime</title><path class="cls-1" d="M5.352,31.49A4.849,4.849,0,0,1,.508,26.646V5.352A4.849,4.849,0,0,1,5.352.509h21.3a4.849,4.849,0,0,1,4.844,4.844v21.3a4.849,4.849,0,0,1-4.844,4.844H5.352Z"/><path class="cls-2" d="M26.647,32H5.353A5.358,5.358,0,0,1,0,26.647V5.352A5.358,5.358,0,0,1,5.353,0H26.647A5.358,5.358,0,0,1,32,5.352v21.3A5.358,5.358,0,0,1,26.647,32ZM5.353,1.017A4.34,4.34,0,0,0,1.017,5.352V26.647a4.34,4.34,0,0,0,4.336,4.336H26.647a4.34,4.34,0,0,0,4.336-4.336V5.352a4.34,4.34,0,0,0-4.336-4.336H5.353Z"/><path class="cls-3" d="M14.5,25.017H3.515a0.5,0.5,0,1,1,0-1H14.5A0.5,0.5,0,0,1,14.5,25.017Z"/><path class="cls-3" d="M10.5,20.007H3.515a0.5,0.5,0,1,1,0-1H10.5A0.5,0.5,0,0,1,10.5,20.007Z"/><path class="cls-3" d="M27.732,16.549a2.524,2.524,0,0,0-3.569-3.569l-0.9.9,3.569,3.569Z"/><polygon class="cls-3" points="16.91 20.545 16.018 25.006 20.479 24.114 25.833 18.76 22.264 15.19 16.91 20.545"/><path class="cls-3" d="M23.154,11.971A2.524,2.524,0,0,0,19.584,8.4l-0.9.9,3.569,3.569Z"/><polygon class="cls-3" points="12.925 15.545 12.033 20.006 16.495 19.114 21.849 13.76 18.28 10.19 12.925 15.545"/><path class="cls-2" d="M27.732,15.549a2.524,2.524,0,0,0-3.569-3.569l-0.9.9,3.569,3.569Z"/><polygon class="cls-2" points="16.91 19.545 16.018 24.006 20.479 23.114 25.833 17.76 22.264 14.19 16.91 19.545"/><path class="cls-2" d="M23.154,10.971A2.524,2.524,0,0,0,19.584,7.4l-0.9.9,3.569,3.569Z"/><polygon class="cls-2" points="12.925 14.545 12.033 19.006 16.495 18.114 21.849 12.76 18.28 9.19 12.925 14.545"/><path class="cls-2" d="M14.5,24.017H3.515a0.5,0.5,0,1,1,0-1H14.5A0.5,0.5,0,0,1,14.5,24.017Z"/><path class="cls-2" d="M10.5,19.007H3.515a0.5,0.5,0,1,1,0-1H10.5A0.5,0.5,0,0,1,10.5,19.007Z"/></svg>