<svg id="Layer_1" data-name="Layer 1" xmlns="http://www.w3.org/2000/svg" width="32" height="32" viewBox="0 0 32 32"><title>perm_allgroups32</title><g id="Layer_3" data-name="Layer 3"><path d="M32,24.428v1a1.577,1.577,0,0,1-1.581,1.581H19.567a3.167,3.167,0,0,0,.235-.342,1.457,1.457,0,0,0,.15-.342,2.477,2.477,0,0,0,.171-.9v-1a4.225,4.225,0,0,0-.043-.513,11.467,11.467,0,0,0-.47-2.713,2.96,2.96,0,0,0-.256-.6,2.163,2.163,0,0,0-.364-.534,1.859,1.859,0,0,0-.469-.448,2.7,2.7,0,0,0-.577-.385,7.267,7.267,0,0,0,1.239-.363,2.452,2.452,0,0,0,1.154-1.132l.213-.385-.342-.278a4.826,4.826,0,0,1-.918-1.046,6.985,6.985,0,0,1-.791-2.072l-.063-.321-.321-.085a.643.643,0,0,1-.235-.214,1.633,1.633,0,0,1-.278-.7,1.47,1.47,0,0,1,.086-.94l.128-.192-.107-.384a6.948,6.948,0,0,1-.064-1.368,9.559,9.559,0,0,1,.235-1.644,3.6,3.6,0,0,1,1.453-1.923,5.645,5.645,0,0,1,6.3,0,3.6,3.6,0,0,1,1.453,1.923,10.625,10.625,0,0,1,.235,1.644,6.948,6.948,0,0,1-.064,1.368l-.107.384.107.192a1.334,1.334,0,0,1,.085.94,1.946,1.946,0,0,1-.256.705.887.887,0,0,1-.235.214l-.321.085-.064.321a6.449,6.449,0,0,1-.811,2.072,3.816,3.816,0,0,1-.9,1.025l-.343.278.193.406a4,4,0,0,0,.341.491,2.435,2.435,0,0,0,.834.641,10.49,10.49,0,0,0,1.9.491,10.408,10.408,0,0,1,2.414.662,2.351,2.351,0,0,1,1.431,1.5,9.441,9.441,0,0,1,.427,2.5l.022.086A1.635,1.635,0,0,1,32,24.428Z" style="fill:#333"/><path d="M19.033,24.428v1a1.577,1.577,0,0,1-1.581,1.581H1.581A1.591,1.591,0,0,1,0,25.432v-1a2,2,0,0,1,.043-.448A9.3,9.3,0,0,1,.47,21.523a2.351,2.351,0,0,1,1.431-1.5,10.293,10.293,0,0,1,2.436-.662,10.257,10.257,0,0,0,1.879-.491,2.244,2.244,0,0,0,.834-.641,4,4,0,0,0,.341-.491l.193-.385-.343-.278a4.265,4.265,0,0,1-.9-1.046,6.449,6.449,0,0,1-.811-2.072l-.064-.321-.321-.085a.887.887,0,0,1-.235-.214,1.964,1.964,0,0,1-.278-.7,1.437,1.437,0,0,1,.107-.94l.107-.192-.107-.384a6.948,6.948,0,0,1-.064-1.368,10.625,10.625,0,0,1,.235-1.644A3.649,3.649,0,0,1,6.387,6.185a5.189,5.189,0,0,1,3.14-.961,5.293,5.293,0,0,1,3.14.961A3.6,3.6,0,0,1,14.12,8.108a9.559,9.559,0,0,1,.235,1.644,6.948,6.948,0,0,1-.064,1.368l-.107.384.107.192a1.462,1.462,0,0,1,.107.94,1.946,1.946,0,0,1-.278.705.887.887,0,0,1-.235.214l-.321.085-.063.321a6.985,6.985,0,0,1-.791,2.072,4.826,4.826,0,0,1-.918,1.046l-.342.257.213.406a2.452,2.452,0,0,0,1.154,1.132,11.022,11.022,0,0,0,1.9.491c.086.021.15.021.235.043a5.306,5.306,0,0,1,.556.128,5.744,5.744,0,0,1,.577.128,7.653,7.653,0,0,1,1.046.363,2.3,2.3,0,0,1,1.431,1.5,9.36,9.36,0,0,1,.427,2.5l.022.086A1.635,1.635,0,0,1,19.033,24.428Z" style="fill:#333"/></g></svg>