<?xml version="1.0" encoding="utf-8"?>
<!-- Generator: Adobe Illustrator 23.0.0, SVG Export Plug-In . SVG Version: 6.00 Build 0)  -->
<svg version="1.1" id="Layer_1" xmlns="http://www.w3.org/2000/svg" xmlns:xlink="http://www.w3.org/1999/xlink" x="0px" y="0px"
	 viewBox="0 0 24 24" style="enable-background:new 0 0 24 24;" xml:space="preserve">
<style type="text/css">
	.st0{fill:#627783;}
</style>
<path class="st0" d="M18.48,9H3.12C2.722,9,2.4,8.597,2.4,8.1c0-0.497,0.323-0.9,0.72-0.9h15.36c0.397,0,0.72,0.403,0.72,0.9
	C19.2,8.597,18.877,9,18.48,9z"/>
<path class="st0" d="M19.836,12.6H3.221c-0.453,0-0.821-0.403-0.821-0.9c0-0.497,0.368-0.9,0.821-0.9h16.614
	c0.454,0,0.822,0.403,0.822,0.9C20.657,12.197,20.289,12.6,19.836,12.6z"/>
<path class="st0" d="M16.095,16.2H3.153c-0.416,0-0.753-0.403-0.753-0.9c0-0.497,0.337-0.9,0.753-0.9h12.942
	c0.416,0,0.753,0.403,0.753,0.9C16.848,15.797,16.51,16.2,16.095,16.2z"/>
</svg>
