<?xml version="1.0" encoding="utf-8"?>
<!-- Generator: Adobe Illustrator 23.0.0, SVG Export Plug-In . SVG Version: 6.00 Build 0)  -->
<svg version="1.1" id="Layer_1" xmlns="http://www.w3.org/2000/svg" xmlns:xlink="http://www.w3.org/1999/xlink" x="0px" y="0px"
	 viewBox="0 0 20 20" style="enable-background:new 0 0 20 20;" xml:space="preserve">
<style type="text/css">
	.st0{fill:#666666;}
</style>
<path class="st0" d="M16.389,9h-4.778C11.274,9,11,8.726,11,8.389V3.611C11,3.274,11.274,3,11.611,3h4.778
	C16.726,3,17,3.274,17,3.611v4.778C17,8.726,16.726,9,16.389,9z"/>
<path class="st0" d="M8.389,9H3.611C3.274,9,3,8.726,3,8.389V3.611C3,3.274,3.274,3,3.611,3h4.778C8.726,3,9,3.274,9,3.611v4.778
	C9,8.726,8.726,9,8.389,9z"/>
<path class="st0" d="M16.389,17h-4.778C11.274,17,11,16.726,11,16.389v-4.778C11,11.274,11.274,11,11.611,11h4.778
	C16.726,11,17,11.274,17,11.611v4.778C17,16.726,16.726,17,16.389,17z"/>
<path class="st0" d="M8.389,17H3.611C3.274,17,3,16.726,3,16.389v-4.778C3,11.274,3.274,11,3.611,11h4.778
	C8.726,11,9,11.274,9,11.611v4.778C9,16.726,8.726,17,8.389,17z"/>
</svg>
