<svg id="Layer_1" data-name="Layer 1" xmlns="http://www.w3.org/2000/svg" viewBox="0 0 14 14"><defs><style>.cls-1{fill:#fff;}.cls-2{fill:#757575;}</style></defs><title>field_delete14</title><circle class="cls-1" cx="7" cy="7" r="6.625"/><path class="cls-2" d="M7,.75A6.25,6.25,0,1,1,.75,7,6.257,6.257,0,0,1,7,.75M7,0a7,7,0,1,0,7,7A7,7,0,0,0,7,0Z"/><path class="cls-2" d="M8.061,7,9.828,5.232A.75.75,0,0,0,8.768,4.172L7,5.939,5.232,4.172A.75.75,0,0,0,4.172,5.232L5.939,7,4.172,8.768A.75.75,0,0,0,5.232,9.828L7,8.061,8.768,9.828A.75.75,0,0,0,9.828,8.768Z"/></svg>