<svg id="Layer_1" data-name="Layer 1" xmlns="http://www.w3.org/2000/svg" viewBox="0 0 14 14"><defs><style>.cls-1{fill:#fff;}.cls-2{fill:#333;}.cls-3{fill:#004a70;}</style></defs><title>field_add_md14</title><circle class="cls-1" cx="7" cy="7" r="6.5"/><path class="cls-2" d="M7,1A6,6,0,1,1,1,7,6.007,6.007,0,0,1,7,1M7,0a7,7,0,1,0,7,7A7,7,0,0,0,7,0Z"/><path class="cls-3" d="M10.25,6.25H7.75V3.75a.75.75,0,0,0-1.5,0v2.5H3.75a.75.75,0,0,0,0,1.5h2.5v2.5a.75.75,0,0,0,1.5,0V7.75h2.5a.75.75,0,0,0,0-1.5Z"/></svg>