<svg id="Layer_1" data-name="Layer 1" xmlns="http://www.w3.org/2000/svg" xmlns:xlink="http://www.w3.org/1999/xlink" viewBox="0 0 26 29.33"><defs><style>.cls-1{fill:none;}.cls-2{fill:#231f20;opacity:0.4;}.cls-2,.cls-6{isolation:isolate;}.cls-3{fill:#fff;}.cls-4{fill:#999;}.cls-5{fill:#2b579a;}.cls-7{clip-path:url(#clip-path);}</style><clipPath id="clip-path" transform="translate(-2 -1.33)"><polygon class="cls-1" points="3.8 22.67 3.8 15.47 12.53 15.4 12.53 22.67 3.8 22.67"/></clipPath></defs><title>Word-docx-M-32</title><polygon class="cls-2" points="26 29.33 3.33 29.33 3.33 0 19 0 26 7 26 29.33"/><polygon class="cls-3" points="4 28.67 4 0.67 18.67 0.67 25.33 7.33 25.33 28.67 4 28.67"/><rect class="cls-4" x="6" y="8" width="17.33" height="1.33"/><rect class="cls-4" x="6" y="4.67" width="14" height="1.33"/><rect class="cls-4" x="6" y="11.33" width="17.33" height="1.33"/><rect class="cls-4" x="6" y="18" width="17.33" height="1.33"/><rect class="cls-4" x="6" y="14.67" width="17.33" height="1.33"/><rect class="cls-4" x="6" y="24.67" width="17.33" height="1.33"/><rect class="cls-4" x="6" y="21.33" width="17.33" height="1.33"/><polygon class="cls-3" points="19.33 6.67 19.33 1.33 19.33 1.33 24.67 6.67 24.67 6.67 19.33 6.67"/><polygon class="cls-2" points="19.33 6.67 19.33 1.2 18.67 0.67 18.67 6.67 18.67 7.33 19.33 7.33 25.33 7.33 24.8 6.67 19.33 6.67"/><g id="_48" data-name="48"><polygon class="cls-3" points="4 8 4 26.2 12.67 27.47 12.67 7.87 4 8"/><polygon class="cls-5" points="12 8.67 12 26.67 0 24.93 0 10.4 12 8.67"/><g class="cls-6"><g class="cls-7"><polyline class="cls-3" points="10.53 14.07 9.13 14.07 8.13 19.47 8.13 19.47 7.07 14.07 5.53 14.07 4.27 19.4 4.27 19.4 3.33 14.13 1.8 14.13 3.4 21.33 5 21.33 6.2 16.2 6.2 16.2 7.33 21.33 8.87 21.33 10.53 14.07"/></g></g></g></svg>