<svg id="Layer_1" data-name="Layer 1" xmlns="http://www.w3.org/2000/svg" xmlns:xlink="http://www.w3.org/1999/xlink" viewBox="0 0 26 29.33"><defs><style>.cls-1{fill:none;}.cls-2{fill:#231f20;opacity:0.4;}.cls-2,.cls-7{isolation:isolate;}.cls-3{fill:#fff;}.cls-4{fill:#7cbab2;}.cls-5{fill:#999;}.cls-6{fill:#077568;}.cls-8{clip-path:url(#clip-path);}</style><clipPath id="clip-path" transform="translate(-2 -1.33)"><polygon class="cls-1" points="6.07 22.67 6.07 15.47 10.6 15.4 10.6 22.67 6.07 22.67"/></clipPath></defs><title>pub_32x1</title><g id="_48" data-name="48"><polygon class="cls-2" points="26 29.33 3.33 29.33 3.33 0 19 0 26 7 26 29.33"/><polygon class="cls-3" points="4 28.67 4 0.67 18.67 0.67 25.33 7.33 25.33 28.67 4 28.67"/><rect class="cls-2" x="6" y="8.67" width="13.33" height="15.33"/><rect class="cls-3" x="6.67" y="9.33" width="12" height="14"/><rect class="cls-2" x="10" y="16.67" width="13.33" height="9.33"/><rect class="cls-3" x="10.67" y="17.33" width="12" height="8"/><rect class="cls-4" x="8" y="10.67" width="9.33" height="2.67"/><rect class="cls-5" x="12" y="18.67" width="4" height="5.33"/><rect class="cls-4" x="17.33" y="19.33" width="4" height="1.33"/><rect class="cls-4" x="17.33" y="22" width="4" height="1.33"/><polygon class="cls-3" points="19.33 6.67 19.33 1.33 19.33 1.33 24.67 6.67 24.67 6.67 19.33 6.67"/><polygon class="cls-2" points="19.33 6.67 19.33 1.2 18.67 0.67 18.67 6.67 18.67 7.33 19.33 7.33 25.33 7.33 24.87 6.67 19.33 6.67"/></g><g id="_48-2" data-name="48"><polygon class="cls-3" points="4 9.13 4 26.2 12.67 27.47 12.67 7.87 4 9.13"/><polygon class="cls-6" points="12 8.67 12 26.67 0 24.93 0 10.4 12 8.67"/><g class="cls-7"><g class="cls-8"><path class="cls-3" d="M7.47,18.93V16.67H8a1,1,0,0,1,.47.07,1.46,1.46,0,0,1,.33.2,1.46,1.46,0,0,1,.2.33,1.13,1.13,0,0,1,.07.47,1.12,1.12,0,0,1-.27.87,1.46,1.46,0,0,1-.33.2,1.13,1.13,0,0,1-.47.07l-0.53.07m0.8-3.53H6.07v7.2h1.4V20.13h1a0.6,0.6,0,0,0,.33-0.07c0.13,0,.2-0.07.33-0.07a1,1,0,0,0,.27-0.13,0.51,0.51,0,0,1,.27-0.13,0.92,0.92,0,0,1,.27-0.2l0.2-.2c0.07-.07.13-0.2,0.2-0.27s0.07-.2.13-0.27a0.5,0.5,0,0,0,.07-0.33c0-.13.07-0.2,0.07-0.33V17.8a4,4,0,0,0-.13-1A1.73,1.73,0,0,0,10,16.07a1.59,1.59,0,0,0-.73-0.4,1.74,1.74,0,0,0-1-.27" transform="translate(-2 -1.33)"/></g></g></g></svg>