<svg id="Layer_1" data-name="Layer 1" xmlns="http://www.w3.org/2000/svg" xmlns:xlink="http://www.w3.org/1999/xlink" viewBox="0 0 26 29.33"><defs><style>.cls-1{fill:none;}.cls-2{fill:#231f20;opacity:0.4;}.cls-2,.cls-7{isolation:isolate;}.cls-3{fill:#fff;}.cls-4{fill:#86bfa0;}.cls-5{fill:#999;}.cls-6{fill:#207347;}.cls-8{clip-path:url(#clip-path);}</style><clipPath id="clip-path" transform="translate(-2 -1.33)"><polygon class="cls-1" points="5.07 22.67 5.07 15.47 10.8 15.4 10.8 22.67 5.07 22.67"/></clipPath></defs><title>Excel-xlsx-M-32</title><g id="_48" data-name="48"><polygon class="cls-2" points="26 29.33 3.33 29.33 3.33 0 19 0 26 7 26 29.33"/><polygon class="cls-3" points="4 28.67 4 0.67 18.67 0.67 25.33 7.33 25.33 28.67 4 28.67"/><rect class="cls-4" x="12" y="23.33" width="5.33" height="3.33"/><rect class="cls-4" x="18" y="23.33" width="5.33" height="3.33"/><rect class="cls-4" x="12" y="19.33" width="5.33" height="3.33"/><rect class="cls-4" x="18" y="19.33" width="5.33" height="3.33"/><rect class="cls-4" x="12" y="15.33" width="5.33" height="3.33"/><rect class="cls-4" x="18" y="15.33" width="5.33" height="3.33"/><rect class="cls-4" x="12" y="11.33" width="5.33" height="3.33"/><rect class="cls-4" x="18" y="11.33" width="5.33" height="3.33"/><rect class="cls-4" x="12" y="7.33" width="5.33" height="3.33"/><rect class="cls-4" x="18" y="7.33" width="5.33" height="3.33"/><rect class="cls-5" x="6" y="23.33" width="5.33" height="3.33"/><rect class="cls-5" x="6" y="19.33" width="5.33" height="3.33"/><rect class="cls-5" x="6" y="15.33" width="5.33" height="3.33"/><rect class="cls-5" x="6" y="11.33" width="5.33" height="3.33"/><rect class="cls-5" x="6" y="7.33" width="5.33" height="3.33"/><rect class="cls-5" x="12" y="3.33" width="5.33" height="3.33"/><rect class="cls-5" x="18" y="3.33" width="2.67" height="3.33"/><rect class="cls-5" x="6" y="3.33" width="5.33" height="3.33"/><polygon class="cls-3" points="19.33 6.67 19.33 1.33 19.33 1.33 24.67 6.67 24.67 6.67 19.33 6.67"/><polygon class="cls-2" points="19.33 6.67 19.33 1.2 18.67 0.67 18.67 6.67 18.67 7.33 19.33 7.33 25.33 7.33 24.87 6.67 19.33 6.67"/></g><g id="_48-2" data-name="48"><polygon class="cls-3" points="4 9.13 4 26.2 12.67 27.47 12.67 7.87 4 9.13"/><polygon class="cls-6" points="12 8.67 12 26.67 0 24.93 0 10.4 12 8.67"/><g class="cls-7"><g class="cls-8"><polyline class="cls-3" points="8.73 14.07 7.2 14.07 6 16.67 5.93 16.67 4.93 14.13 3.2 14.13 5 17.73 3.07 21.33 4.67 21.33 5.93 18.67 5.93 18.67 7.13 21.33 8.8 21.33 6.87 17.67 8.73 14.07"/></g></g></g></svg>