<svg id="Layer_1" data-name="Layer 1" xmlns="http://www.w3.org/2000/svg" xmlns:xlink="http://www.w3.org/1999/xlink" viewBox="0 0 26 29.33"><defs><style>.cls-1{fill:none;}.cls-2{fill:#231f20;opacity:0.4;}.cls-2,.cls-7{isolation:isolate;}.cls-3{fill:#fff;}.cls-4{fill:#999;}.cls-5{fill:#acbbe3;}.cls-6{fill:#3a56a0;}.cls-8{clip-path:url(#clip-path);}</style><clipPath id="clip-path" transform="translate(-2 -1.33)"><polygon class="cls-1" points="4.73 22.67 4.73 15.47 10.53 15.4 10.53 22.67 4.73 22.67"/></clipPath></defs><title>vsdx_32x1</title><g id="_48" data-name="48"><polygon class="cls-2" points="26 29.33 3.33 29.33 3.33 0 19 0 26 7 26 29.33"/><polygon class="cls-3" points="4 28.67 4 0.67 18.67 0.67 25.33 7.33 25.33 28.67 4 28.67"/><rect class="cls-4" x="14" y="17.33" width="6.67" height="0.67"/><rect class="cls-4" x="10.67" y="10" width="6.67" height="0.67"/><rect class="cls-4" x="20" y="17.33" width="0.67" height="4.67"/><rect class="cls-4" x="16.67" y="12" width="0.67" height="6"/><rect class="cls-4" x="10.67" y="10" width="0.67" height="7.33"/><rect class="cls-3" x="7" y="15" width="7.33" height="5.33"/><path class="cls-4" d="M16,16.67v4.67H9.33V16.67H16M16.67,16h-8v6h8V16h0Z" transform="translate(-2 -1.33)"/><circle class="cls-3" cx="20.33" cy="22.33" r="2"/><path class="cls-4" d="M22.33,21.93a1.73,1.73,0,1,1-1.73,1.73,1.76,1.76,0,0,1,1.73-1.73m0-.6a2.33,2.33,0,1,0,2.33,2.33,2.36,2.36,0,0,0-2.33-2.33h0Z" transform="translate(-2 -1.33)"/><rect class="cls-3" x="17.21" y="9.83" width="3.67" height="3.67" transform="translate(-4.67 15.55) rotate(-45)"/><path class="cls-4" d="M19,9.47l2.2,2.2L19,13.87l-2.2-2.2L19,9.47m0-.8-3,3,3,3,3-3-3-3h0Z" transform="translate(-2 -1.33)"/><rect class="cls-5" x="6" y="2" width="1.33" height="1.33"/><rect class="cls-5" x="9.33" y="2" width="1.33" height="1.33"/><rect class="cls-5" x="9.33" y="5.33" width="1.33" height="1.33"/><rect class="cls-5" x="21.33" y="9.33" width="1.33" height="1.33"/><rect class="cls-5" x="21.33" y="12.67" width="1.33" height="1.33"/><rect class="cls-5" x="21.33" y="16" width="1.33" height="1.33"/><rect class="cls-5" x="12.67" y="2" width="1.33" height="1.33"/><rect class="cls-5" x="16" y="2" width="1.33" height="1.33"/><rect class="cls-5" x="5.33" y="23.33" width="1.33" height="1.33"/><rect class="cls-5" x="8.67" y="23.33" width="1.33" height="1.33"/><rect class="cls-5" x="12" y="23.33" width="1.33" height="1.33"/><rect class="cls-5" x="15.33" y="23.33" width="1.33" height="1.33"/><polygon class="cls-3" points="19.33 6.67 19.33 1.33 19.33 1.33 24.67 6.67 24.67 6.67 19.33 6.67"/><polygon class="cls-2" points="19.33 6.67 19.33 1.2 18.67 0.67 18.67 6.67 18.67 7.33 19.33 7.33 25.33 7.33 24.87 6.67 19.33 6.67"/></g><g id="_48-2" data-name="48"><polygon class="cls-3" points="4 8 4 26.2 12.67 27.47 12.67 7.87 4 8"/><polygon class="cls-6" points="12 8.67 12 26.67 0 24.93 0 10.4 12 8.67"/><g class="cls-7"><g class="cls-8"><polyline class="cls-3" points="8.53 14.07 7.07 14.07 5.67 19.6 5.67 19.6 4.2 14.13 2.73 14.13 4.8 21.33 6.4 21.33 8.53 14.07"/></g></g></g></svg>