<svg id="Layer_2" data-name="Layer 2" xmlns="http://www.w3.org/2000/svg" viewBox="0 0 32 32"><defs><style>.cls-1{fill:#0072aa;}.cls-2{fill:#1291ce;}.cls-3{fill:#9370b1;}.cls-4{fill:#c57c15;}.cls-5{fill:#fff;}</style></defs><title>mime</title><path class="cls-1" d="M22,14.042h9V8a3,3,0,0,0-3-3H14v9.042a4.012,4.012,0,0,1-4,4H1V24a3,3,0,0,0,3,3H18V18.042A4.012,4.012,0,0,1,22,14.042Z"/><path class="cls-2" d="M28,4a4.012,4.012,0,0,1,4,4h0a4.012,4.012,0,0,0-4-4h0Z"/><path class="cls-2" d="M0,8H0A4.012,4.012,0,0,1,4,4H4A4.012,4.012,0,0,0,0,8Z"/><path class="cls-3" d="M20,18.042V27h8a3,3,0,0,0,3-3V16.042H22A2,2,0,0,0,20,18.042Z"/><path class="cls-4" d="M12,14.042V5H4A3,3,0,0,0,1,8v8.042h9A2,2,0,0,0,12,14.042Z"/><path class="cls-5" d="M4,28a3.988,3.988,0,0,1-2.825-1.175A3.988,3.988,0,0,0,4,28H4Z"/><path class="cls-5" d="M30.825,26.825A3.988,3.988,0,0,1,28,28h0A3.988,3.988,0,0,0,30.825,26.825Z"/><path class="cls-5" d="M32,24a3.988,3.988,0,0,1-1.175,2.825A3.988,3.988,0,0,0,32,24h0Z"/><path class="cls-5" d="M0,24a3.987,3.987,0,0,0,1.175,2.825A3.988,3.988,0,0,1,0,24H0Z"/><path class="cls-5" d="M18,28V27H4a3,3,0,0,1-3-3V18.042H0V24a4.012,4.012,0,0,0,4,4H18Z"/><path class="cls-5" d="M4,5h8V4H4A4.012,4.012,0,0,0,0,8v8.042H1V8A3,3,0,0,1,4,5Z"/><path class="cls-5" d="M31,24a3,3,0,0,1-3,3H20v1h8a4.012,4.012,0,0,0,4-4V16.042H31V24Z"/><path class="cls-5" d="M28,4H14V5H28a3,3,0,0,1,3,3v6.042h1V8A4.012,4.012,0,0,0,28,4Z"/><path class="cls-5" d="M14,14.042V5H12v9.042a2,2,0,0,1-2,2H1v2h9A4.012,4.012,0,0,0,14,14.042Z"/><rect class="cls-5" x="12" y="4" width="2"/><rect class="cls-5" y="16.042" width="1" height="2"/><rect class="cls-5" x="12" y="4" width="2" height="1"/><path class="cls-5" d="M20,18.042a2,2,0,0,1,2-2h9v-2H22a4.012,4.012,0,0,0-4,4V27h2V18.042Z"/><rect class="cls-5" x="18" y="28" width="2"/><rect class="cls-5" x="31" y="14.042" width="1" height="2"/><rect class="cls-5" x="18" y="27" width="2" height="1"/></svg>