<svg id="Layer_1" data-name="Layer 1" xmlns="http://www.w3.org/2000/svg" width="32" height="32" viewBox="0 0 32 32"><title>perm_owner32</title><path d="M20.338,29.118a2.173,2.173,0,0,1-1.531-3.7l1.794-1.8-.264-.264-1.8,1.8a2.17,2.17,0,0,1-3.062,0,2.176,2.176,0,0,1,0-3.071l1.8-1.795-5.829-5.829a5.9,5.9,0,0,1-7.89-.4l-.32-.319a5.9,5.9,0,0,1,0-8.358L5.426,3.185a6.026,6.026,0,0,1,8.358,0l.32.32a5.869,5.869,0,0,1,.4,7.891L26.866,23.753A2.165,2.165,0,0,1,23.8,26.814l-.133-.133-1.8,1.8A2.151,2.151,0,0,1,20.338,29.118ZM9.61,5.783a1.572,1.572,0,0,0-1.123.463L6.3,8.436a1.581,1.581,0,0,0,0,2.235l.32.32a1.636,1.636,0,0,0,2.235,0l2.188-2.2a1.569,1.569,0,0,0,0-2.227l-.32-.32A1.561,1.561,0,0,0,9.61,5.783Z" style="fill:#775909"/><path d="M9.61,2a5.4,5.4,0,0,1,3.82,1.538l.32.32a5.373,5.373,0,0,1,.072,7.558l12.69,12.69a1.665,1.665,0,0,1-2.354,2.354l-.485-.485-2.158,2.148a1.659,1.659,0,0,1-1.177.5,1.642,1.642,0,0,1-1.177-.5,1.664,1.664,0,0,1,0-2.354l2.148-2.158-.971-.971L18.18,24.8a1.668,1.668,0,1,1-2.354-2.365l2.158-2.147-6.515-6.515A5.4,5.4,0,0,1,3.91,13.7l-.32-.32a5.4,5.4,0,0,1,0-7.651L5.779,3.538A5.411,5.411,0,0,1,9.61,2M7.73,11.933a2.093,2.093,0,0,0,1.477-.589l2.189-2.2a2.069,2.069,0,0,0,0-2.932l-.32-.32a2.082,2.082,0,0,0-2.943,0L5.944,8.082a2.081,2.081,0,0,0,0,2.943l.32.32a2.068,2.068,0,0,0,1.466.589M9.61,1A6.44,6.44,0,0,0,5.072,2.831L2.883,5.02a6.4,6.4,0,0,0,0,9.065l.32.32a6.4,6.4,0,0,0,8.2.712l5.166,5.166-1.447,1.44a2.667,2.667,0,0,0,2.668,4.439,2.675,2.675,0,0,0-.116.782,2.659,2.659,0,0,0,4.549,1.884l1.462-1.455A2.664,2.664,0,0,0,27.219,23.4L15.17,11.35a6.368,6.368,0,0,0-.713-8.2l-.32-.32A6.427,6.427,0,0,0,9.61,1ZM7.73,10.933a1.074,1.074,0,0,1-.759-.3l-.32-.32a1.067,1.067,0,0,1-.316-.759,1.08,1.08,0,0,1,.316-.769L8.84,6.6a1.08,1.08,0,0,1,.769-.316,1.067,1.067,0,0,1,.759.316l.32.32a1.068,1.068,0,0,1,.316.759,1.054,1.054,0,0,1-.316.759l-2.19,2.2a1.1,1.1,0,0,1-.768.294Z" style="fill:#fff"/></svg>