<svg id="Layer_1" data-name="Layer 1" xmlns="http://www.w3.org/2000/svg" width="18" height="18" viewBox="0 0 18 18"><title>perm_group18</title><g id="Layer_3" data-name="Layer 3"><path d="M8.292,14.333a1.282,1.282,0,0,1-1.273-1.25l0-.516a1.248,1.248,0,0,1,.035-.285,4.8,4.8,0,0,1,.221-1.267,1.642,1.642,0,0,1,.966-1.045,5.649,5.649,0,0,1,1.289-.354,4.173,4.173,0,0,0,.806-.2.613.613,0,0,0,.211-.157,2.724,2.724,0,0,1-.381-.476,3.5,3.5,0,0,1-.425-1.043A.816.816,0,0,1,9.493,7.5a1.385,1.385,0,0,1-.22-.546,1.28,1.28,0,0,1,.058-.712l0-.02a3.193,3.193,0,0,1-.044-.784,4.93,4.93,0,0,1,.131-.886,2.242,2.242,0,0,1,.9-1.227,3.227,3.227,0,0,1,3.632,0,2.25,2.25,0,0,1,.9,1.221,5.02,5.02,0,0,1,.13.893,3.129,3.129,0,0,1-.045.786l0,.02a1.289,1.289,0,0,1,.056.709,1.389,1.389,0,0,1-.218.544.843.843,0,0,1-.243.233A3.494,3.494,0,0,1,14.1,8.778a2.668,2.668,0,0,1-.379.476.6.6,0,0,0,.211.158,4.161,4.161,0,0,0,.807.2,5.752,5.752,0,0,1,1.289.355A1.661,1.661,0,0,1,17,11.016a5.058,5.058,0,0,1,.228,1.321,1.037,1.037,0,0,1,.023.229v.49a1.277,1.277,0,0,1-1.276,1.276Z" style="fill:#333"/><path d="M12.135,3.021a2.853,2.853,0,0,1,1.671.513,2,2,0,0,1,.805,1.079,4.717,4.717,0,0,1,.123.844,2.934,2.934,0,0,1-.041.724c-.007.033-.014.066-.023.1a.969.969,0,0,1,.073.635,1.136,1.136,0,0,1-.176.444.5.5,0,0,1-.255.2,3.326,3.326,0,0,1-.42,1.085,2.33,2.33,0,0,1-.495.566,1.089,1.089,0,0,0,.128.194.859.859,0,0,0,.309.235,4.274,4.274,0,0,0,.861.221,5.463,5.463,0,0,1,1.231.337,1.4,1.4,0,0,1,.831.889,4.83,4.83,0,0,1,.218,1.267,1.012,1.012,0,0,1,.023.212v.491a1.029,1.029,0,0,1-1.026,1.026H8.292a1.028,1.028,0,0,1-1.024-1l0-.021v-.49a1.008,1.008,0,0,1,.028-.23,4.779,4.779,0,0,1,.217-1.25,1.4,1.4,0,0,1,.831-.889,5.49,5.49,0,0,1,1.231-.336,4.273,4.273,0,0,0,.861-.221.865.865,0,0,0,.309-.235,1.044,1.044,0,0,0,.127-.192,2.335,2.335,0,0,1-.5-.568,3.323,3.323,0,0,1-.421-1.085.491.491,0,0,1-.256-.2,1.133,1.133,0,0,1-.177-.446.964.964,0,0,1,.075-.637c-.008-.031-.015-.063-.021-.1a2.966,2.966,0,0,1-.04-.725,4.7,4.7,0,0,1,.126-.845,1.993,1.993,0,0,1,.805-1.078,2.852,2.852,0,0,1,1.671-.513m0-.5a3.348,3.348,0,0,0-1.961.605,2.5,2.5,0,0,0-1,1.364,5.233,5.233,0,0,0-.14.939,3.538,3.538,0,0,0,.039.8A1.576,1.576,0,0,0,9.028,7a1.617,1.617,0,0,0,.261.646,1.122,1.122,0,0,0,.229.242,3.685,3.685,0,0,0,.433,1.022,2.959,2.959,0,0,0,.215.3,5.209,5.209,0,0,1-.684.16,5.869,5.869,0,0,0-1.348.374,1.9,1.9,0,0,0-1.1,1.2,5.16,5.16,0,0,0-.233,1.32,1.472,1.472,0,0,0-.032.3v.527l0,.025a1.535,1.535,0,0,0,1.522,1.463h7.682A1.527,1.527,0,0,0,17.5,13.057v-.491a1.508,1.508,0,0,0-.026-.279,5.247,5.247,0,0,0-.235-1.342,1.9,1.9,0,0,0-1.1-1.2,5.827,5.827,0,0,0-1.343-.373A5.219,5.219,0,0,1,14.1,9.21a2.952,2.952,0,0,0,.214-.3,3.683,3.683,0,0,0,.433-1.024,1.124,1.124,0,0,0,.227-.24A1.624,1.624,0,0,0,15.237,7a1.562,1.562,0,0,0-.043-.775,3.5,3.5,0,0,0,.041-.8,5.236,5.236,0,0,0-.137-.935,2.5,2.5,0,0,0-1-1.368,3.348,3.348,0,0,0-1.961-.605Z" style="fill:#fff"/><path d="M2.026,14.457a1.408,1.408,0,0,1-1.4-1.372l0-.519a1.359,1.359,0,0,1,.038-.313A4.688,4.688,0,0,1,.886,10.98,1.777,1.777,0,0,1,1.92,9.857a5.831,5.831,0,0,1,1.31-.363,4.156,4.156,0,0,0,.785-.2A.531.531,0,0,0,4.1,9.25a2.736,2.736,0,0,1-.309-.405,3.588,3.588,0,0,1-.429-1.03.957.957,0,0,1-.236-.237,1.517,1.517,0,0,1-.241-.6,1.427,1.427,0,0,1,.051-.745,3.392,3.392,0,0,1-.043-.8,5.037,5.037,0,0,1,.137-.919A2.36,2.36,0,0,1,3.98,3.229a3.227,3.227,0,0,1,1.889-.583,3.225,3.225,0,0,1,1.889.583,2.371,2.371,0,0,1,.951,1.293,5.092,5.092,0,0,1,.134.915,3.318,3.318,0,0,1-.045.8,1.438,1.438,0,0,1,.049.741,1.53,1.53,0,0,1-.24.595.991.991,0,0,1-.235.238,3.58,3.58,0,0,1-.429,1.031,2.787,2.787,0,0,1-.307.4.465.465,0,0,0,.084.049,4.11,4.11,0,0,0,.779.2,5.744,5.744,0,0,1,1.318.364,1.779,1.779,0,0,1,1.034,1.123,5.206,5.206,0,0,1,.232,1.348,1.009,1.009,0,0,1,.023.238v.49a1.4,1.4,0,0,1-1.4,1.4Z" style="fill:#333"/><path d="M5.869,3.021a2.853,2.853,0,0,1,1.671.513,2,2,0,0,1,.805,1.079,4.717,4.717,0,0,1,.123.844,2.933,2.933,0,0,1-.041.724c-.007.033-.014.066-.023.1a.969.969,0,0,1,.073.635,1.136,1.136,0,0,1-.176.444.5.5,0,0,1-.255.2,3.326,3.326,0,0,1-.42,1.085,2.33,2.33,0,0,1-.495.566,1.089,1.089,0,0,0,.128.194.859.859,0,0,0,.309.235,4.273,4.273,0,0,0,.861.221,5.463,5.463,0,0,1,1.231.337,1.4,1.4,0,0,1,.831.889,4.829,4.829,0,0,1,.218,1.267,1.011,1.011,0,0,1,.023.212v.49a1.029,1.029,0,0,1-1.026,1.026H2.026a1.028,1.028,0,0,1-1.024-1l0-.021v-.49a1.008,1.008,0,0,1,.028-.23,4.779,4.779,0,0,1,.217-1.25,1.4,1.4,0,0,1,.831-.889,5.491,5.491,0,0,1,1.231-.337,4.273,4.273,0,0,0,.861-.221.865.865,0,0,0,.309-.235A1.044,1.044,0,0,0,4.6,9.213a2.335,2.335,0,0,1-.5-.568,3.323,3.323,0,0,1-.421-1.085.491.491,0,0,1-.256-.2,1.134,1.134,0,0,1-.177-.446.964.964,0,0,1,.075-.637c-.008-.031-.015-.063-.021-.1a2.963,2.963,0,0,1-.04-.724,4.7,4.7,0,0,1,.126-.845A1.993,1.993,0,0,1,4.2,3.534a2.856,2.856,0,0,1,1.672-.513m0-.75a3.6,3.6,0,0,0-2.106.651,2.747,2.747,0,0,0-1.1,1.507,5.4,5.4,0,0,0-.147.986,3.864,3.864,0,0,0,.032.788,1.832,1.832,0,0,0-.034.843,1.868,1.868,0,0,0,.3.746,1.41,1.41,0,0,0,.213.239,3.888,3.888,0,0,0,.442,1.013l.011.017c-.1.022-.211.043-.315.062a6.158,6.158,0,0,0-1.405.392A2.14,2.14,0,0,0,.525,10.875a5.4,5.4,0,0,0-.242,1.357,1.709,1.709,0,0,0-.034.335v.546l0,.034a1.787,1.787,0,0,0,1.771,1.686H9.708a1.778,1.778,0,0,0,1.776-1.776v-.49a1.765,1.765,0,0,0-.028-.31,5.49,5.49,0,0,0-.243-1.382A2.141,2.141,0,0,0,9.975,9.517a6.11,6.11,0,0,0-1.4-.391c-.107-.021-.219-.042-.324-.064l.011-.017A3.884,3.884,0,0,0,8.7,8.029a1.408,1.408,0,0,0,.211-.237,1.876,1.876,0,0,0,.3-.745,1.843,1.843,0,0,0-.033-.837,3.818,3.818,0,0,0,.034-.794,5.5,5.5,0,0,0-.144-.982,2.714,2.714,0,0,0-1.1-1.511,3.6,3.6,0,0,0-2.106-.652Z" style="fill:#fff"/></g></svg>