<svg id="Layer_1" data-name="Layer 1" xmlns="http://www.w3.org/2000/svg" width="18" height="18" viewBox="0 0 18 18"><title>perm_user18</title><g id="Layer_3" data-name="Layer 3"><path d="M4.6,15.375a1.559,1.559,0,0,1-1.548-1.52l0-.593a1.527,1.527,0,0,1,.042-.348,5.433,5.433,0,0,1,.254-1.456A1.989,1.989,0,0,1,4.5,10.206a6.614,6.614,0,0,1,1.5-.413A4.738,4.738,0,0,0,6.9,9.565a.591.591,0,0,0,.153-.1,3.181,3.181,0,0,1-.388-.5,4.083,4.083,0,0,1-.49-1.185A1.062,1.062,0,0,1,5.9,7.509a1.687,1.687,0,0,1-.266-.663A1.564,1.564,0,0,1,5.7,6.007a3.8,3.8,0,0,1-.052-.917A5.8,5.8,0,0,1,5.8,4.052,2.66,2.66,0,0,1,6.869,2.6a3.787,3.787,0,0,1,4.267,0,2.664,2.664,0,0,1,1.07,1.45,5.791,5.791,0,0,1,.152,1.04,3.7,3.7,0,0,1-.054.92,1.585,1.585,0,0,1,.06.837,1.694,1.694,0,0,1-.265.659,1.029,1.029,0,0,1-.273.271,4.063,4.063,0,0,1-.49,1.188,3.146,3.146,0,0,1-.386.5.611.611,0,0,0,.157.1,4.81,4.81,0,0,0,.9.227,6.518,6.518,0,0,1,1.5.413,1.99,1.99,0,0,1,1.155,1.253,5.909,5.909,0,0,1,.264,1.533,1.166,1.166,0,0,1,.027.27v.563A1.552,1.552,0,0,1,13.4,15.375Z" style="fill:#333"/><path d="M9,2.318a3.271,3.271,0,0,1,1.916.588,2.288,2.288,0,0,1,.923,1.237,5.408,5.408,0,0,1,.142.968,3.363,3.363,0,0,1-.047.83c-.008.038-.016.076-.026.113a1.111,1.111,0,0,1,.084.728,1.3,1.3,0,0,1-.2.509.57.57,0,0,1-.292.232,3.813,3.813,0,0,1-.482,1.244,2.672,2.672,0,0,1-.567.649,1.249,1.249,0,0,0,.146.222.985.985,0,0,0,.355.27,4.9,4.9,0,0,0,.988.253,6.263,6.263,0,0,1,1.411.386,1.61,1.61,0,0,1,.953,1.019,5.537,5.537,0,0,1,.25,1.453,1.16,1.16,0,0,1,.026.243v.562A1.179,1.179,0,0,1,13.4,15H4.6a1.178,1.178,0,0,1-1.174-1.152c0-.008,0-.016,0-.024v-.562A1.155,1.155,0,0,1,3.453,13,5.479,5.479,0,0,1,3.7,11.566a1.609,1.609,0,0,1,.953-1.019,6.3,6.3,0,0,1,1.411-.386,4.9,4.9,0,0,0,.988-.253.991.991,0,0,0,.355-.27,1.2,1.2,0,0,0,.145-.22,2.677,2.677,0,0,1-.569-.651A3.81,3.81,0,0,1,6.5,7.523a.563.563,0,0,1-.294-.231A1.3,1.3,0,0,1,6,6.781a1.105,1.105,0,0,1,.086-.73c-.009-.036-.017-.073-.025-.11a3.4,3.4,0,0,1-.046-.83,5.394,5.394,0,0,1,.144-.968,2.285,2.285,0,0,1,.923-1.236A3.274,3.274,0,0,1,9,2.318m0-.75a4.02,4.02,0,0,0-2.351.726A3.039,3.039,0,0,0,5.435,3.959a6.085,6.085,0,0,0-.165,1.11,4.288,4.288,0,0,0,.039.906,1.979,1.979,0,0,0-.044.939,2.031,2.031,0,0,0,.329.811A1.49,1.49,0,0,0,5.846,8a4.367,4.367,0,0,0,.5,1.165q.048.077.1.15c-.156.038-.34.073-.521.107a6.973,6.973,0,0,0-1.586.441,2.348,2.348,0,0,0-1.36,1.489,6.113,6.113,0,0,0-.273,1.539,1.855,1.855,0,0,0-.038.369v.618l0,.035A1.938,1.938,0,0,0,4.6,15.75H13.4a1.928,1.928,0,0,0,1.926-1.926v-.562a1.914,1.914,0,0,0-.031-.342,6.141,6.141,0,0,0-.275-1.567,2.35,2.35,0,0,0-1.359-1.488,6.817,6.817,0,0,0-1.58-.44c-.185-.036-.372-.071-.53-.11q.051-.073.1-.15A4.363,4.363,0,0,0,12.156,8a1.491,1.491,0,0,0,.249-.274,2.04,2.04,0,0,0,.328-.81,1.991,1.991,0,0,0-.042-.933,4.241,4.241,0,0,0,.042-.912,6.193,6.193,0,0,0-.162-1.105,3.044,3.044,0,0,0-1.217-1.67A4.015,4.015,0,0,0,9,1.568Z" style="fill:#fff"/></g></svg>